<svg xmlns="http://www.w3.org/2000/svg" width="476" height="116" fill="none"><path fill="#fff" d="m336.833 51.006 3.01-16.557h11.331l2.833-15.5h19.12l-2.832 15.5h20.537l-2.833 16.557h-20.537l-6.197 34.874c-.885 5.637 2.479 9.688 7.967 9.688h10.8l-3.187 18.142h-12.393c-7.613 0-13.809-2.466-18.235-7.222-4.426-4.755-5.843-10.744-4.603-17.79l6.727-37.692h-11.508Zm-24.589 62.704h-19.121L315.149 0h18.864l-21.769 113.71ZM236.84 116c-11.154 0-19.652-4.051-25.671-11.977-5.843-7.926-7.79-17.966-5.666-29.943 1.948-11.801 7.436-21.84 16.288-29.767 8.852-8.102 18.767-12.153 29.921-12.153 9.029 0 16.642 2.818 22.661 8.63l1.062-6.34h18.944l-13.986 79.26h-18.944l1.062-6.341c-7.79 5.813-16.288 8.631-25.671 8.631Zm13.809-64.818c-5.842 0-11.33 2.29-16.288 6.694-4.78 4.403-7.79 9.687-9.029 16.204-2.301 12.858 5.134 22.897 17.173 22.897 6.02 0 11.508-2.113 16.288-6.517 4.958-4.403 7.967-9.863 9.207-16.38 2.301-12.858-5.312-22.898-17.351-22.898ZM195.703 74.08l-1.77 7.045h-63.382c1.24 10.392 9.03 17.438 20.36 17.438 7.613 0 14.341-2.819 20.006-8.455l17.705 5.46C178.884 108.25 163.835 116 147.725 116c-12.216 0-21.777-4.051-28.681-11.977-6.728-7.926-9.03-17.966-6.905-29.943 1.947-11.801 7.79-21.84 17.173-29.767 9.383-8.102 20.183-12.153 32.045-12.153 11.862 0 20.891 4.05 27.442 12.153 6.55 7.926 8.852 17.966 6.904 29.767Zm-62.319-7.75h43.907c-1.24-9.864-8.852-16.733-19.475-16.733-9.914 0-19.652 6.87-24.432 16.733Zm-86.806 2.113-8.85 45.267H19.973L39.947 0h18.865l-7.985 44.313c7.613-8.102 16.465-12.154 26.91-12.154 9.384 0 16.465 2.995 21.422 8.807 5.135 5.813 6.728 13.21 5.135 22.193l-8.852 50.551H76.32l7.967-45.267c1.947-10.392-4.957-18.142-15.58-18.142-10.8 0-20.183 7.574-22.13 17.966v.176Zm371.114 0-8.85 45.267h-17.683L411.062 0h18.381l-7.502 44.313c7.613-8.102 16.465-12.154 26.91-12.154 9.384 0 16.465 2.995 21.423 8.807 5.134 5.813 6.727 13.21 5.134 22.193l-8.852 50.551h-19.121l7.967-45.267c1.948-10.392-4.957-18.142-15.58-18.142-10.799 0-20.183 7.574-22.13 17.966v.176ZM3.32 20.652c-4.427-4.756-4.427-12.682 0-17.085 4.426-4.756 12.57-4.756 16.996 0 4.78 4.403 4.78 12.33 0 17.085-4.426 4.403-12.57 4.403-16.996 0Z"/></svg>